<?xml version="1.0" encoding="UTF-8"?>
<svg width="184px" height="55px" viewBox="0 0 184 55" version="1.1" xmlns="http://www.w3.org/2000/svg" xmlns:xlink="http://www.w3.org/1999/xlink">
    <!-- Generator: Sketch 42 (36781) - http://www.bohemiancoding.com/sketch -->
    <title>appStoreButton</title>
    <desc>Created with Sketch.</desc>
    <defs></defs>
    <g id="Page-1" stroke="none" stroke-width="1" fill="none" fill-rule="evenodd">
        <g id="Desktop-HD" transform="translate(-251.000000, -646.000000)">
            <g id="appStore" transform="translate(251.000000, 646.000000)">
                <g id="appStoreButton">
                    <g id="Download_on_the_App_Store_Badge_US-UK_135x40" fill-rule="nonzero">
                        <g id="Group">
                            <path d="M176.512403,55 L6.41126256,55 C2.87686597,55 0,52.074 0,48.492125 L0,6.49825 C0,2.915 2.87686597,0 6.41126256,0 L176.512403,0 C180.045443,0 183.023989,2.915 183.023989,6.49825 L183.023989,48.492125 C183.023989,52.074 180.045443,55 176.512403,55 L176.512403,55 Z" id="Shape" fill="#A49EAC"></path>
                            <g transform="translate(17.287318, 8.250000)" id="Shape" fill="#FFFFFF">
                                <path d="M23.5582139,18.953 C23.5188977,14.521375 27.135994,12.365375 27.3013934,12.265 C25.2528805,9.235875 22.0777532,8.822 20.9619847,8.789 C18.2952574,8.504375 15.7085184,10.407375 14.3500737,10.407375 C12.9645143,10.407375 10.8726179,8.8165 8.61803346,8.86325 C5.71676429,8.908625 3.00258632,10.61225 1.5139912,13.25775 C-1.55810035,18.651875 0.733088847,26.57875 3.67638574,30.938875 C5.14871206,33.07425 6.86913756,35.4585 9.1210105,35.374625 C11.324077,35.2825 12.1470071,33.950125 14.8056,33.950125 C17.4397897,33.950125 18.2125577,35.374625 20.5091698,35.321 C22.8735686,35.2825 24.3621637,33.176 25.7829722,31.021375 C27.4844174,28.573875 28.167707,26.1635 28.1948217,26.03975 C28.1392366,26.0205 23.6029531,24.264625 23.5582139,18.953 Z"></path>
                                <path d="M19.2198675,5.92075 C20.4047784,4.417875 21.2155069,2.37325 20.9904551,0.298375 C19.2754526,0.375375 17.1306826,1.5015 15.8956096,2.971375 C14.8028886,4.266625 13.8267606,6.389625 14.078927,8.386125 C16.005424,8.531875 17.9834388,7.40025 19.2198675,5.92075 Z"></path>
                            </g>
                            <g transform="translate(56.940797, 24.750000)" id="Shape" fill="#FFFFFF">
                                <path d="M15.7875138,18.568 L12.7086435,18.568 L11.0221114,13.193125 L5.15992077,13.193125 L3.55337686,18.568 L0.555850635,18.568 L6.3638119,0.2695 L9.95108209,0.2695 L15.7875138,18.568 Z M10.5137114,10.938125 L8.98851148,6.16 C8.82717922,5.671875 8.52485071,4.522375 8.07881447,2.712875 L8.02458514,2.712875 C7.84698408,3.491125 7.56092436,4.640625 7.16776172,6.16 L5.66967647,10.938125 L10.5137114,10.938125 L10.5137114,10.938125 Z"></path>
                                <path d="M30.723627,11.8085 C30.723627,14.0525 30.1257487,15.82625 28.9299919,17.128375 C27.8589627,18.2875 26.5289883,18.866375 24.9414247,18.866375 C23.2277779,18.866375 21.9967721,18.242125 21.2470516,16.993625 L21.1928222,16.993625 L21.1928222,23.94425 L18.3023989,23.94425 L18.3023989,9.717125 C18.3023989,8.306375 18.2657941,6.8585 18.195296,5.3735 L20.7372959,5.3735 L20.8986281,7.464875 L20.9528575,7.464875 C21.9167838,5.889125 23.37962,5.102625 25.3427217,5.102625 C26.8774118,5.102625 28.1585797,5.71725 29.183514,6.947875 C30.2111599,8.179875 30.723627,9.799625 30.723627,11.8085 Z M27.7789744,11.91575 C27.7789744,10.6315 27.4942704,9.57275 26.922151,8.7395 C26.2971579,7.8705 25.4579591,7.436 24.4059101,7.436 C23.6927944,7.436 23.0447539,7.678 22.4658558,8.155125 C21.8856019,8.636375 21.5059966,9.26475 21.3283956,10.043 C21.2389172,10.406 21.194178,10.703 21.194178,10.93675 L21.194178,13.13675 C21.194178,14.0965 21.4843049,14.906375 22.0645587,15.56775 C22.6448126,16.229125 23.3986002,16.559125 24.3259218,16.559125 C25.4145756,16.559125 26.2619089,16.132875 26.8679216,15.283125 C27.4752901,14.432 27.7789744,13.31 27.7789744,11.91575 Z"></path>
                                <path d="M45.686855,11.8085 C45.686855,14.0525 45.0889766,15.82625 43.8918641,17.128375 C42.8221906,18.2875 41.4922163,18.866375 39.9046526,18.866375 C38.1910058,18.866375 36.96,18.242125 36.2116352,16.993625 L36.1574059,16.993625 L36.1574059,23.94425 L33.2669826,23.94425 L33.2669826,9.717125 C33.2669826,8.306375 33.2303778,6.8585 33.1598797,5.3735 L35.7018795,5.3735 L35.8632118,7.464875 L35.9174411,7.464875 C36.8800117,5.889125 38.3428479,5.102625 40.3073054,5.102625 C41.8406397,5.102625 43.1218076,5.71725 44.1494535,6.947875 C45.1730321,8.179875 45.686855,9.799625 45.686855,11.8085 Z M42.7422023,11.91575 C42.7422023,10.6315 42.4561426,9.57275 41.8840232,8.7395 C41.2590302,7.8705 40.4225427,7.436 39.369138,7.436 C38.6546666,7.436 38.0079818,7.678 37.427728,8.155125 C36.8474741,8.636375 36.4692246,9.26475 36.2916235,10.043 C36.2035008,10.406 36.1574059,10.703 36.1574059,10.93675 L36.1574059,13.13675 C36.1574059,14.0965 36.4475328,14.906375 37.0250752,15.56775 C37.605329,16.22775 38.3591167,16.559125 39.2891497,16.559125 C40.3778035,16.559125 41.2251368,16.132875 41.8311496,15.283125 C42.4385181,14.432 42.7422023,13.31 42.7422023,11.91575 Z"></path>
                                <path d="M62.4166033,13.4365 C62.4166033,14.993 61.8838002,16.259375 60.8141266,17.237 C59.6387059,18.305375 58.0023359,18.838875 55.8995936,18.838875 C53.9581836,18.838875 52.4018018,18.459375 51.2236696,17.699 L51.8934018,15.255625 C53.1623681,16.033875 54.5547062,16.424375 56.0717717,16.424375 C57.1604255,16.424375 58.0077588,16.174125 58.616483,15.676375 C59.2224958,15.178625 59.5248243,14.510375 59.5248243,13.677125 C59.5248243,12.934625 59.2753694,12.309 58.7751038,11.801625 C58.2775497,11.29425 57.4464852,10.822625 56.2859776,10.38675 C53.1271191,9.191875 51.5490456,7.4415 51.5490456,5.13975 C51.5490456,3.6355 52.1021847,2.402125 53.2098188,1.442375 C54.3133857,0.48125 55.785712,0.001375 57.6267977,0.001375 C59.2685907,0.001375 60.6324584,0.2915 61.7211122,0.870375 L60.9985063,3.260125 C59.9817064,2.699125 58.8320446,2.418625 57.5454537,2.418625 C56.5286538,2.418625 55.7341941,2.673 55.1647861,3.179 C54.6835008,3.631375 54.4421803,4.18275 54.4421803,4.835875 C54.4421803,5.559125 54.7173942,6.15725 55.2705333,6.6275 C55.7518186,7.062 56.6262666,7.53225 57.8952329,8.039625 C59.4475475,8.6735 60.5877192,9.414625 61.3211709,10.264375 C62.0519111,11.111375 62.4166033,12.1715 62.4166033,13.4365 Z"></path>
                                <path d="M71.973167,7.5735 L68.7871939,7.5735 L68.7871939,13.979625 C68.7871939,15.609 69.3484675,16.423 70.4737261,16.423 C70.9902604,16.423 71.4186721,16.377625 71.7576055,16.286875 L71.8375937,18.513 C71.2681858,18.728875 70.5184653,18.8375 69.589788,18.8375 C68.4482606,18.8375 67.5561881,18.484125 66.9122148,17.77875 C66.270953,17.072 65.9482885,15.88675 65.9482885,14.221625 L65.9482885,7.57075 L64.0502619,7.57075 L64.0502619,5.37075 L65.9482885,5.37075 L65.9482885,2.954875 L68.7871939,2.085875 L68.7871939,5.37075 L71.973167,5.37075 L71.973167,7.5735 Z"></path>
                                <path d="M86.3480067,11.862125 C86.3480067,13.89025 85.7758873,15.555375 84.6343599,16.8575 C83.4372475,18.198125 81.8483281,18.866375 79.8676018,18.866375 C77.9587294,18.866375 76.4389524,18.22425 75.3055594,16.94 C74.1721664,15.65575 73.6054699,14.034625 73.6054699,12.08075 C73.6054699,10.036125 74.1884352,8.361375 75.358433,7.05925 C76.5257193,5.75575 78.1010814,5.104 80.0818076,5.104 C81.9906801,5.104 83.5267258,5.746125 84.6858778,7.03175 C85.7948676,8.278875 86.3480067,9.889 86.3480067,11.862125 Z M83.3491248,11.957 C83.3491248,10.740125 83.0928912,9.6965 82.5736454,8.826125 C81.9676326,7.772875 81.1013191,7.247625 79.9787719,7.247625 C78.8169085,7.247625 77.9343262,7.77425 77.3283134,8.826125 C76.8090676,9.697875 76.552834,10.758 76.552834,12.012 C76.552834,13.228875 76.8090676,14.2725 77.3283134,15.1415 C77.9533064,16.19475 78.8263987,16.72 79.953013,16.72 C81.0565799,16.72 81.9228934,16.18375 82.5478864,15.114 C83.0806896,14.227125 83.3491248,13.1725 83.3491248,11.957 Z"></path>
                                <path d="M95.7432382,7.951625 C95.4571785,7.898 95.1521385,7.8705 94.8321855,7.8705 C93.8153855,7.8705 93.0290602,8.259625 92.4759211,9.03925 C91.9946358,9.72675 91.7533152,10.59575 91.7533152,11.644875 L91.7533152,18.568 L88.8642477,18.568 L88.8913623,9.52875 C88.8913623,8.008 88.8547575,6.623375 88.7829037,5.374875 L91.3005003,5.374875 L91.4062475,7.899375 L91.4862358,7.899375 C91.7912758,7.03175 92.2725611,6.33325 92.9314474,5.809375 C93.5754207,5.33775 94.2709119,5.102625 95.0206324,5.102625 C95.2877118,5.102625 95.5290324,5.121875 95.7432382,5.15625 L95.7432382,7.951625 Z"></path>
                                <path d="M108.670155,11.3465 C108.670155,11.87175 108.636261,12.3145 108.564408,12.676125 L99.8931377,12.676125 C99.927031,13.979625 100.345953,14.9765 101.151258,15.664 C101.881998,16.278625 102.826944,16.586625 103.987452,16.586625 C105.271332,16.586625 106.442685,16.379 107.49609,15.962375 L107.948905,17.997375 C106.717899,18.541875 105.264553,18.81275 103.587511,18.81275 C101.57018,18.81275 99.9866833,18.2105 98.83431,17.007375 C97.6846482,15.80425 97.1084616,14.188625 97.1084616,12.161875 C97.1084616,10.17225 97.6439762,8.515375 98.7163612,7.194 C99.8389084,5.78325 101.355974,5.077875 103.264846,5.077875 C105.139825,5.077875 106.559278,5.78325 107.523204,7.194 C108.286482,8.314625 108.670155,9.700625 108.670155,11.3465 Z M105.913949,10.586125 C105.932929,9.717125 105.744482,8.966375 105.352676,8.3325 C104.85241,7.517125 104.083709,7.110125 103.049285,7.110125 C102.104339,7.110125 101.335638,7.5075 100.748605,8.305 C100.26732,8.938875 99.9812604,9.69925 99.8931377,10.58475 L105.913949,10.58475 L105.913949,10.586125 Z"></path>
                            </g>
                        </g>
                    </g>
                    <path d="M65.6852762,16.204375 C65.7666206,16.204375 65.8366661,16.236458 65.8954149,16.300625 L66.4648228,16.933125 C66.0671391,17.4097941 65.5824693,17.7787487 65.0107989,18.04 C64.4391285,18.3012513 63.7511008,18.431875 62.946695,18.431875 C62.2417102,18.431875 61.6033922,18.3081262 61.0317218,18.060625 C60.4600514,17.8131238 59.9719923,17.4670856 59.5675299,17.0225 C59.1630675,16.5779144 58.8501222,16.0462531 58.6286846,15.4275 C58.4072471,14.8087469 58.29653,14.1281287 58.29653,13.385625 C58.29653,12.6431213 58.4128959,11.9625031 58.6456313,11.34375 C58.8783667,10.7249969 59.2048691,10.1933356 59.6251486,9.74875 C60.045428,9.30416444 60.548174,8.95812624 61.1334018,8.710625 C61.7186296,8.46312376 62.3659857,8.339375 63.0754897,8.339375 C63.7669171,8.339375 64.38151,8.45395719 64.9192869,8.683125 C65.4570638,8.91229281 65.9247871,9.21708143 66.3224708,9.5975 L65.8479642,10.278125 C65.8163303,10.3285419 65.7767884,10.3697915 65.7293375,10.401875 C65.6818866,10.4339585 65.6197495,10.45 65.5429242,10.45 C65.4570607,10.45 65.3565115,10.4064588 65.2412736,10.319375 C65.1260357,10.2322912 64.974647,10.1348964 64.7871029,10.0271875 C64.5995589,9.91947863 64.3679568,9.82208377 64.0922896,9.735 C63.8166225,9.64791623 63.4731735,9.604375 63.0619324,9.604375 C62.5783851,9.604375 62.1355166,9.69031164 61.7333138,9.8621875 C61.3311109,10.0340634 60.9842726,10.2815609 60.6927885,10.6046875 C60.4013044,10.9278141 60.1753511,11.3242685 60.0149219,11.7940625 C59.8544926,12.2638565 59.7742792,12.794372 59.7742792,13.385625 C59.7742792,13.9860447 59.8578819,14.5199977 60.0250899,14.9875 C60.1922978,15.4550023 60.4227702,15.8514567 60.7165138,16.176875 C61.0102575,16.5022933 61.355966,16.7497908 61.7536498,16.919375 C62.1513335,17.0889592 62.5806447,17.17375 63.0415964,17.17375 C63.3217826,17.17375 63.5737205,17.1565627 63.7974177,17.1221875 C64.0211148,17.0878123 64.2267322,17.0362503 64.4142763,16.9675 C64.6018203,16.8987497 64.7791936,16.8105214 64.9464016,16.7028125 C65.1136095,16.5951036 65.2785554,16.4656258 65.4412442,16.314375 C65.4773973,16.2822915 65.5158093,16.2559376 65.5564815,16.2353125 C65.5971538,16.2146874 65.6400849,16.204375 65.6852762,16.204375 Z M70.5862519,11.226875 C71.0923949,11.226875 71.5499503,11.31052 71.9589318,11.4778125 C72.3679134,11.645105 72.7158815,11.8857276 73.0028465,12.1996875 C73.2898114,12.5136474 73.5101159,12.8917686 73.6637664,13.3340625 C73.817417,13.7763564 73.8942411,14.2724972 73.8942411,14.8225 C73.8942411,15.3725027 73.817417,15.8697894 73.6637664,16.314375 C73.5101159,16.7589606 73.2898114,17.1370818 73.0028465,17.44875 C72.7158815,17.7604182 72.3679134,17.999895 71.9589318,18.1671875 C71.5499503,18.33448 71.0923949,18.418125 70.5862519,18.418125 C70.0755898,18.418125 69.6157749,18.33448 69.2067933,18.1671875 C68.7978118,17.999895 68.4487139,17.7604182 68.1594894,17.44875 C67.8702649,17.1370818 67.6477009,16.7589606 67.4917908,16.314375 C67.3358807,15.8697894 67.2579268,15.3725027 67.2579268,14.8225 C67.2579268,14.2724972 67.3358807,13.7763564 67.4917908,13.3340625 C67.6477009,12.8917686 67.8702649,12.5136474 68.1594894,12.1996875 C68.4487139,11.8857276 68.7978118,11.645105 69.2067933,11.4778125 C69.6157749,11.31052 70.0755898,11.226875 70.5862519,11.226875 Z M70.5862519,17.373125 C71.2370071,17.373125 71.7228067,17.1508356 72.0436652,16.70625 C72.3645236,16.2616644 72.5249505,15.6360457 72.5249505,14.829375 C72.5249505,14.0227043 72.3645236,13.3959397 72.0436652,12.9490625 C71.7228067,12.5021853 71.2370071,12.27875 70.5862519,12.27875 C69.9264584,12.27875 69.4350101,12.5021853 69.111892,12.9490625 C68.788774,13.3959397 68.6272174,14.0227043 68.6272174,14.829375 C68.6272174,15.6360457 68.788774,16.2616644 69.111892,16.70625 C69.4350101,17.1508356 69.9264584,17.373125 70.5862519,17.373125 Z M75.3652116,18.321875 L75.3652116,11.336875 L76.1583156,11.336875 C76.3436001,11.336875 76.4588362,11.4262491 76.5040276,11.605 L76.5989289,12.271875 C76.8520004,11.9647901 77.1333122,11.7138551 77.4428729,11.5190625 C77.7524335,11.3242699 78.1150885,11.226875 78.5308488,11.226875 C78.9872813,11.226875 79.3578447,11.3540612 79.6425501,11.6084375 C79.9272555,11.8628138 80.1351325,12.2077062 80.2661874,12.643125 C80.3656083,12.3956238 80.4944017,12.1825009 80.6525713,12.00375 C80.810741,11.8249991 80.9869846,11.6783339 81.1813073,11.56375 C81.3756301,11.4491661 81.5823773,11.3643753 81.8015553,11.309375 C82.0207333,11.2543747 82.2432972,11.226875 82.4692539,11.226875 C82.8353037,11.226875 83.1618062,11.2853119 83.4487712,11.4021875 C83.7357362,11.5190631 83.9786359,11.6897905 84.1774778,11.914375 C84.3763197,12.1389595 84.5277084,12.4162483 84.6316484,12.74625 C84.7355885,13.0762516 84.7875578,13.4520812 84.7875578,13.87375 L84.7875578,18.321875 L83.4589392,18.321875 L83.4589392,13.87375 C83.4589392,13.3512474 83.3470923,12.9570847 83.1233952,12.69125 C82.8996981,12.4254153 82.5731956,12.2925 82.1438779,12.2925 C81.9540743,12.2925 81.7733117,12.3257288 81.6015846,12.3921875 C81.4298576,12.4586462 81.2795986,12.5583327 81.1508033,12.69125 C81.022008,12.8241673 80.920329,12.9891657 80.8457633,13.18625 C80.7711976,13.3833343 80.7339153,13.6124987 80.7339153,13.87375 L80.7339153,18.321875 L79.4052968,18.321875 L79.4052968,13.87375 C79.4052968,13.332914 79.2990987,12.9341679 79.0866994,12.6775 C78.8743002,12.420832 78.5624846,12.2925 78.1512435,12.2925 C77.8665381,12.2925 77.6021727,12.3681242 77.3581395,12.519375 C77.1141063,12.6706258 76.8904126,12.8768737 76.6870516,13.138125 L76.6870516,18.321875 L75.3652116,18.321875 Z M87.9531949,11.336875 L87.9531949,18.321875 L86.631355,18.321875 L86.631355,11.336875 L87.9531949,11.336875 Z M88.2040056,9.178125 C88.2040056,9.30187562 88.1791507,9.41989527 88.1294402,9.5321875 C88.0797298,9.64447973 88.0130736,9.74302041 87.9294696,9.8278125 C87.8458656,9.91260459 87.7475759,9.97906226 87.6345976,10.0271875 C87.5216193,10.0753127 87.4041236,10.099375 87.282107,10.099375 C87.1600904,10.099375 87.0448542,10.0753127 86.936395,10.0271875 C86.8279358,9.97906226 86.7319056,9.91260459 86.6483017,9.8278125 C86.5646977,9.74302041 86.4991712,9.64447973 86.4517203,9.5321875 C86.4042694,9.41989527 86.3805443,9.30187562 86.3805443,9.178125 C86.3805443,9.04979103 86.4042694,8.92947973 86.4517203,8.8171875 C86.4991712,8.70489527 86.5646977,8.60635459 86.6483017,8.5215625 C86.7319056,8.43677041 86.8279358,8.37031274 86.936395,8.3221875 C87.0448542,8.27406226 87.1600904,8.25 87.282107,8.25 C87.4041236,8.25 87.5216193,8.27406226 87.6345976,8.3221875 C87.7475759,8.37031274 87.8458656,8.43677041 87.9294696,8.5215625 C88.0130736,8.60635459 88.0797298,8.70489527 88.1294402,8.8171875 C88.1791507,8.92947973 88.2040056,9.04979103 88.2040056,9.178125 Z M91.1120534,12.30625 C91.2611848,12.1458325 91.4170926,11.9991673 91.5797814,11.86625 C91.7424702,11.7333327 91.9153244,11.6198963 92.0983494,11.5259375 C92.2813743,11.4319787 92.4779536,11.3586461 92.6880933,11.3059375 C92.898233,11.2532289 93.1230565,11.226875 93.3625706,11.226875 C93.7421778,11.226875 94.0754589,11.291041 94.3624239,11.419375 C94.6493889,11.547709 94.8900291,11.727603 95.0843518,11.9590625 C95.2786746,12.190522 95.4255442,12.4689567 95.5249652,12.794375 C95.6243861,13.1197933 95.6740958,13.4795814 95.6740958,13.87375 L95.6740958,18.321875 L94.3454772,18.321875 L94.3454772,13.87375 C94.3454772,13.3741642 94.2325006,12.9857306 94.0065439,12.7084375 C93.7805872,12.4311444 93.4348787,12.2925 92.969408,12.2925 C92.630473,12.2925 92.3130086,12.3738534 92.0170054,12.5365625 C91.7210021,12.6992716 91.4464689,12.9204153 91.1933974,13.2 L91.1933974,18.321875 L89.8715575,18.321875 L89.8715575,11.336875 L90.6646614,11.336875 C90.8499459,11.336875 90.9651821,11.4262491 91.0103734,11.605 L91.1120534,12.30625 Z M99.8768689,14.83625 C100.111864,14.83625 100.318611,14.804167 100.497117,14.74 C100.675623,14.675833 100.824752,14.5853131 100.944509,14.4684375 C101.064266,14.3515619 101.154647,14.2106258 101.215655,14.045625 C101.276664,13.8806242 101.307167,13.6995843 101.307167,13.5025 C101.307167,13.0991646 101.186282,12.7771887 100.944509,12.5365625 C100.702735,12.2959363 100.346859,12.175625 99.8768689,12.175625 C99.4113982,12.175625 99.0577813,12.2959363 98.8160076,12.5365625 C98.574234,12.7771887 98.453349,13.0991646 98.453349,13.5025 C98.453349,13.6995843 98.4838527,13.8794784 98.544861,14.0421875 C98.6058693,14.2048966 98.6962506,14.3446869 98.8160076,14.4615625 C98.9357647,14.5784381 99.0848938,14.6701038 99.2633996,14.7365625 C99.4419054,14.8030212 99.6463931,14.83625 99.8768689,14.83625 Z M101.985034,18.68625 C101.985034,18.5212492 101.939843,18.3894797 101.849461,18.2909375 C101.759078,18.1923953 101.635934,18.1144795 101.480023,18.0571875 C101.324113,17.9998955 101.142221,17.958646 100.934341,17.9334375 C100.726461,17.908229 100.508416,17.8887501 100.2802,17.875 C100.051983,17.8612499 99.8181217,17.8486459 99.5786076,17.8371875 C99.3390935,17.8257291 99.1086212,17.8039585 98.8871836,17.771875 C98.6521887,17.8910423 98.4589986,18.0354158 98.3076077,18.205 C98.1562167,18.3745842 98.0805223,18.5739572 98.0805223,18.803125 C98.0805223,18.9497924 98.1178046,19.087291 98.1923703,19.215625 C98.266936,19.343959 98.3821722,19.4551037 98.5380823,19.5490625 C98.6939924,19.6430213 98.8905718,19.7163539 99.1278263,19.7690625 C99.3650808,19.8217711 99.6486522,19.848125 99.9785489,19.848125 C100.303927,19.848125 100.590887,19.8194795 100.83944,19.7621875 C101.087992,19.7048955 101.296999,19.624688 101.466466,19.5215625 C101.635934,19.418437 101.764727,19.295834 101.85285,19.15375 C101.940973,19.011666 101.985034,18.8558342 101.985034,18.68625 Z M103.32721,11.598125 L103.32721,12.1 C103.32721,12.2650008 103.225531,12.3681248 103.02217,12.409375 L102.283295,12.519375 C102.346563,12.661459 102.396273,12.8115617 102.432426,12.9696875 C102.468579,13.1278133 102.486655,13.2939575 102.486655,13.468125 C102.486655,13.8118767 102.421129,14.1223944 102.290074,14.3996875 C102.159019,14.6769806 101.978257,14.9141657 101.747781,15.11125 C101.517305,15.3083343 101.242772,15.4595828 100.924173,15.565 C100.605574,15.6704172 100.256476,15.723125 99.8768689,15.723125 C99.5650487,15.723125 99.273569,15.6887503 99.002421,15.62 C98.8668469,15.7025004 98.7640382,15.7930203 98.6939916,15.8915625 C98.6239451,15.9901047 98.5889223,16.0874995 98.5889223,16.18375 C98.5889223,16.3441675 98.6555785,16.4633329 98.788893,16.54125 C98.9222074,16.6191671 99.0961914,16.6753123 99.3108503,16.7096875 C99.5255091,16.7440627 99.7717982,16.7658333 100.049725,16.775 C100.327652,16.7841667 100.610093,16.7990624 100.897058,16.8196875 C101.184023,16.8403126 101.466465,16.8769789 101.744391,16.9296875 C102.022318,16.9823961 102.268607,17.0671869 102.483266,17.1840625 C102.697925,17.3009381 102.871909,17.4613531 103.005223,17.6653125 C103.138538,17.8692719 103.205194,18.1339567 103.205194,18.459375 C103.205194,18.7618765 103.131759,19.0552069 102.984887,19.339375 C102.838016,19.6235431 102.62449,19.8756239 102.344303,20.095625 C102.064117,20.3156261 101.722928,20.4920827 101.320725,20.625 C100.918522,20.7579173 100.462096,20.824375 99.9514342,20.824375 C99.4407722,20.824375 98.996774,20.7739588 98.6194263,20.673125 C98.2420787,20.5722912 97.9280036,20.4370842 97.6771917,20.2675 C97.4263798,20.0979158 97.2388386,19.9008345 97.1145624,19.67625 C96.9902862,19.4516655 96.9281491,19.2179179 96.9281491,18.975 C96.9281491,18.6358316 97.0320876,18.3482303 97.2399677,18.1121875 C97.4478479,17.8761447 97.7348085,17.6916673 98.1008583,17.55875 C97.9020165,17.4670829 97.7438492,17.3421883 97.6263517,17.1840625 C97.5088542,17.0259367 97.4501064,16.8162513 97.4501064,16.555 C97.4501064,16.4541662 97.4681826,16.3498964 97.5043357,16.2421875 C97.5404888,16.1344786 97.5958473,16.0267714 97.670413,15.9190625 C97.7449787,15.8113536 97.8376196,15.7093755 97.9483383,15.613125 C98.0590571,15.5168745 98.1867207,15.4297921 98.331333,15.351875 C97.992398,15.159374 97.7257731,14.9038558 97.5314504,14.5853125 C97.3371276,14.2667692 97.2399677,13.8943771 97.2399677,13.468125 C97.2399677,13.1243733 97.3054942,12.8150014 97.436549,12.54 C97.5676039,12.2649986 97.7494963,12.0289593 97.9822317,11.831875 C98.2149671,11.6347907 98.4928896,11.4835422 98.8160076,11.378125 C99.1391257,11.2727078 99.4927426,11.22 99.8768689,11.22 C100.473395,11.22 100.986308,11.3460404 101.415626,11.598125 L103.32721,11.598125 Z M112.01746,12.54 C111.981307,12.5995836 111.942895,12.641979 111.902223,12.6671875 C111.861551,12.692396 111.809581,12.705 111.746314,12.705 C111.674007,12.705 111.593794,12.6797919 111.505671,12.629375 C111.417548,12.5789581 111.31135,12.5239586 111.187074,12.464375 C111.062797,12.4047914 110.917058,12.3497919 110.74985,12.299375 C110.582642,12.2489581 110.383803,12.22375 110.153327,12.22375 C109.963523,12.22375 109.790669,12.2478123 109.634759,12.2959375 C109.478849,12.3440627 109.346666,12.4105204 109.238207,12.4953125 C109.129748,12.5801046 109.046145,12.6809369 108.987396,12.7978125 C108.928648,12.9146881 108.899274,13.0395827 108.899274,13.1725 C108.899274,13.3466675 108.950113,13.4910411 109.051794,13.605625 C109.153474,13.7202089 109.286787,13.8187496 109.451735,13.90125 C109.616683,13.9837504 109.804225,14.0582288 110.014364,14.1246875 C110.224504,14.1911462 110.43916,14.2610413 110.658338,14.334375 C110.877516,14.4077087 111.092171,14.4913537 111.302311,14.5853125 C111.512451,14.6792713 111.699992,14.7961451 111.86494,14.9359375 C112.029889,15.0757299 112.163201,15.2441657 112.264882,15.44125 C112.366562,15.6383343 112.417402,15.8789569 112.417402,16.163125 C112.417402,16.4885433 112.359783,16.7898944 112.244546,17.0671875 C112.129308,17.3444806 111.959843,17.5839573 111.736146,17.785625 C111.512448,17.9872927 111.235656,18.1454161 110.905759,18.26 C110.575862,18.3745839 110.19852,18.431875 109.773722,18.431875 C109.299213,18.431875 108.860863,18.3516675 108.45866,18.19125 C108.056458,18.0308325 107.719787,17.8268762 107.448639,17.579375 L107.760458,17.06375 C107.796611,16.999583 107.841802,16.9503127 107.896031,16.9159375 C107.950261,16.8815623 108.022566,16.864375 108.112948,16.864375 C108.198812,16.864375 108.286934,16.896458 108.377316,16.960625 C108.467699,17.024792 108.576157,17.0946871 108.702692,17.1703125 C108.829228,17.2459379 108.982876,17.3146872 109.163642,17.3765625 C109.344407,17.4384378 109.57036,17.469375 109.841508,17.469375 C110.067465,17.469375 110.264044,17.4407295 110.431252,17.3834375 C110.59846,17.3261455 110.737421,17.2482297 110.84814,17.1496875 C110.958859,17.0511453 111.041332,16.937709 111.095562,16.809375 C111.149791,16.681041 111.176906,16.545834 111.176906,16.40375 C111.176906,16.2204157 111.126066,16.0680214 111.024386,15.9465625 C110.922705,15.8251036 110.789393,15.7208338 110.624444,15.63375 C110.459496,15.5466662 110.270825,15.471042 110.058426,15.406875 C109.846026,15.342708 109.629111,15.2739587 109.407674,15.200625 C109.186236,15.1272913 108.969321,15.0425005 108.756922,14.94625 C108.544522,14.8499995 108.355851,14.7285424 108.190903,14.581875 C108.025955,14.4352076 107.892642,14.2564594 107.790962,14.045625 C107.689281,13.8347906 107.638442,13.5781265 107.638442,13.275625 C107.638442,13.005207 107.6938,12.7462512 107.804519,12.49875 C107.915238,12.2512488 108.075665,12.0335426 108.285804,11.845625 C108.495944,11.6577074 108.75579,11.5076047 109.065351,11.3953125 C109.374912,11.2830203 109.728529,11.226875 110.126212,11.226875 C110.582645,11.226875 110.99501,11.3002076 111.363319,11.446875 C111.731628,11.5935424 112.046833,11.795207 112.308943,12.051875 L112.01746,12.54 Z M116.782863,11.226875 C117.289006,11.226875 117.746561,11.31052 118.155543,11.4778125 C118.564524,11.645105 118.912492,11.8857276 119.199457,12.1996875 C119.486422,12.5136474 119.706727,12.8917686 119.860377,13.3340625 C120.014028,13.7763564 120.090852,14.2724972 120.090852,14.8225 C120.090852,15.3725027 120.014028,15.8697894 119.860377,16.314375 C119.706727,16.7589606 119.486422,17.1370818 119.199457,17.44875 C118.912492,17.7604182 118.564524,17.999895 118.155543,18.1671875 C117.746561,18.33448 117.289006,18.418125 116.782863,18.418125 C116.272201,18.418125 115.812386,18.33448 115.403404,18.1671875 C114.994422,17.999895 114.645325,17.7604182 114.3561,17.44875 C114.066876,17.1370818 113.844312,16.7589606 113.688401,16.314375 C113.532491,15.8697894 113.454537,15.3725027 113.454537,14.8225 C113.454537,14.2724972 113.532491,13.7763564 113.688401,13.3340625 C113.844312,12.8917686 114.066876,12.5136474 114.3561,12.1996875 C114.645325,11.8857276 114.994422,11.645105 115.403404,11.4778125 C115.812386,11.31052 116.272201,11.226875 116.782863,11.226875 Z M116.782863,17.373125 C117.433618,17.373125 117.919417,17.1508356 118.240276,16.70625 C118.561134,16.2616644 118.721561,15.6360457 118.721561,14.829375 C118.721561,14.0227043 118.561134,13.3959397 118.240276,12.9490625 C117.919417,12.5021853 117.433618,12.27875 116.782863,12.27875 C116.123069,12.27875 115.631621,12.5021853 115.308503,12.9490625 C114.985385,13.3959397 114.823828,14.0227043 114.823828,14.829375 C114.823828,15.6360457 114.985385,16.2616644 115.308503,16.70625 C115.631621,17.1508356 116.123069,17.373125 116.782863,17.373125 Z M124.496985,11.226875 C125.003128,11.226875 125.460683,11.31052 125.869665,11.4778125 C126.278646,11.645105 126.626614,11.8857276 126.913579,12.1996875 C127.200544,12.5136474 127.420849,12.8917686 127.574499,13.3340625 C127.72815,13.7763564 127.804974,14.2724972 127.804974,14.8225 C127.804974,15.3725027 127.72815,15.8697894 127.574499,16.314375 C127.420849,16.7589606 127.200544,17.1370818 126.913579,17.44875 C126.626614,17.7604182 126.278646,17.999895 125.869665,18.1671875 C125.460683,18.33448 125.003128,18.418125 124.496985,18.418125 C123.986323,18.418125 123.526508,18.33448 123.117526,18.1671875 C122.708545,17.999895 122.359447,17.7604182 122.070222,17.44875 C121.780998,17.1370818 121.558434,16.7589606 121.402524,16.314375 C121.246614,15.8697894 121.16866,15.3725027 121.16866,14.8225 C121.16866,14.2724972 121.246614,13.7763564 121.402524,13.3340625 C121.558434,12.8917686 121.780998,12.5136474 122.070222,12.1996875 C122.359447,11.8857276 122.708545,11.645105 123.117526,11.4778125 C123.526508,11.31052 123.986323,11.226875 124.496985,11.226875 Z M124.496985,17.373125 C125.14774,17.373125 125.63354,17.1508356 125.954398,16.70625 C126.275257,16.2616644 126.435683,15.6360457 126.435683,14.829375 C126.435683,14.0227043 126.275257,13.3959397 125.954398,12.9490625 C125.63354,12.5021853 125.14774,12.27875 124.496985,12.27875 C123.837191,12.27875 123.345743,12.5021853 123.022625,12.9490625 C122.699507,13.3959397 122.53795,14.0227043 122.53795,14.829375 C122.53795,15.6360457 122.699507,16.2616644 123.022625,16.70625 C123.345743,17.1508356 123.837191,17.373125 124.496985,17.373125 Z M130.51644,12.30625 C130.665572,12.1458325 130.82148,11.9991673 130.984168,11.86625 C131.146857,11.7333327 131.319712,11.6198963 131.502736,11.5259375 C131.685761,11.4319787 131.882341,11.3586461 132.09248,11.3059375 C132.30262,11.2532289 132.527444,11.226875 132.766958,11.226875 C133.146565,11.226875 133.479846,11.291041 133.766811,11.419375 C134.053776,11.547709 134.294416,11.727603 134.488739,11.9590625 C134.683062,12.190522 134.829931,12.4689567 134.929352,12.794375 C135.028773,13.1197933 135.078483,13.4795814 135.078483,13.87375 L135.078483,18.321875 L133.749864,18.321875 L133.749864,13.87375 C133.749864,13.3741642 133.636888,12.9857306 133.410931,12.7084375 C133.184974,12.4311444 132.839266,12.2925 132.373795,12.2925 C132.03486,12.2925 131.717396,12.3738534 131.421392,12.5365625 C131.125389,12.6992716 130.850856,12.9204153 130.597784,13.2 L130.597784,18.321875 L129.275945,18.321875 L129.275945,11.336875 L130.069048,11.336875 C130.254333,11.336875 130.369569,11.4262491 130.41476,11.605 L130.51644,12.30625 Z M142.440114,18.431875 C141.884261,18.431875 141.45608,18.2737516 141.155557,17.9575 C140.855035,17.6412484 140.704776,17.1897946 140.704776,16.603125 L140.704776,12.423125 L139.904893,12.423125 C139.828068,12.423125 139.763671,12.3990627 139.711701,12.3509375 C139.659731,12.3028123 139.633747,12.2306255 139.633747,12.134375 L139.633747,11.59125 L140.752227,11.433125 L141.050488,9.35 C141.068564,9.27208294 141.103587,9.21135438 141.155557,9.1678125 C141.207527,9.12427062 141.274183,9.1025 141.355528,9.1025 L142.026616,9.1025 L142.026616,11.446875 L143.978872,11.446875 L143.978872,12.423125 L142.026616,12.423125 L142.026616,16.51375 C142.026616,16.7887514 142.093272,16.9938535 142.226586,17.1290625 C142.359901,17.2642715 142.530496,17.331875 142.738376,17.331875 C142.860392,17.331875 142.965461,17.3158335 143.053584,17.28375 C143.141707,17.2516665 143.217401,17.216146 143.280669,17.1771875 C143.343937,17.138229 143.398166,17.1027085 143.443357,17.070625 C143.488548,17.0385415 143.52922,17.0225 143.565373,17.0225 C143.610564,17.0225 143.645587,17.0328124 143.670442,17.0534375 C143.695298,17.0740626 143.721282,17.1072914 143.748397,17.153125 L144.14156,17.799375 C143.924641,18.0010427 143.667055,18.1568745 143.368792,18.266875 C143.070529,18.3768756 142.760973,18.431875 142.440114,18.431875 Z M148.127415,11.226875 C148.633558,11.226875 149.091114,11.31052 149.500095,11.4778125 C149.909077,11.645105 150.257045,11.8857276 150.54401,12.1996875 C150.830975,12.5136474 151.051279,12.8917686 151.20493,13.3340625 C151.35858,13.7763564 151.435405,14.2724972 151.435405,14.8225 C151.435405,15.3725027 151.35858,15.8697894 151.20493,16.314375 C151.051279,16.7589606 150.830975,17.1370818 150.54401,17.44875 C150.257045,17.7604182 149.909077,17.999895 149.500095,18.1671875 C149.091114,18.33448 148.633558,18.418125 148.127415,18.418125 C147.616753,18.418125 147.156938,18.33448 146.747957,18.1671875 C146.338975,17.999895 145.989877,17.7604182 145.700653,17.44875 C145.411428,17.1370818 145.188864,16.7589606 145.032954,16.314375 C144.877044,15.8697894 144.79909,15.3725027 144.79909,14.8225 C144.79909,14.2724972 144.877044,13.7763564 145.032954,13.3340625 C145.188864,12.8917686 145.411428,12.5136474 145.700653,12.1996875 C145.989877,11.8857276 146.338975,11.645105 146.747957,11.4778125 C147.156938,11.31052 147.616753,11.226875 148.127415,11.226875 Z M148.127415,17.373125 C148.778171,17.373125 149.26397,17.1508356 149.584829,16.70625 C149.905687,16.2616644 150.066114,15.6360457 150.066114,14.829375 C150.066114,14.0227043 149.905687,13.3959397 149.584829,12.9490625 C149.26397,12.5021853 148.778171,12.27875 148.127415,12.27875 C147.467622,12.27875 146.976174,12.5021853 146.653056,12.9490625 C146.329937,13.3959397 146.168381,14.0227043 146.168381,14.829375 C146.168381,15.6360457 146.329937,16.2616644 146.653056,16.70625 C146.976174,17.1508356 147.467622,17.373125 148.127415,17.373125 Z" id="Coming-soon-to" fill="#FFFFFF"></path>
                </g>
            </g>
        </g>
    </g>
</svg>