<?xml version="1.0" encoding="UTF-8"?>
<svg width="36px" height="36px" viewBox="0 0 36 36" version="1.1" xmlns="http://www.w3.org/2000/svg" xmlns:xlink="http://www.w3.org/1999/xlink">
    <!-- Generator: Sketch 42 (36781) - http://www.bohemiancoding.com/sketch -->
    <title>facebookButton</title>
    <desc>Created with Sketch.</desc>
    <defs></defs>
    <g id="Page-1" stroke="none" stroke-width="1" fill="none" fill-rule="evenodd">
        <g id="Desktop-HD" transform="translate(-927.000000, -864.000000)" fill="#776F83">
            <g id="Group-8" transform="translate(927.000000, 864.000000)">
                <path d="M29.2500349,0 L6.75000805,0 C3.0234411,0 0,3.0234411 0,6.75000805 L0,29.2500349 C0,32.9766018 3.0234411,36.0000429 6.75000805,36.0000429 L19.2187729,36.0000429 L19.2187729,22.0547138 L14.5312673,22.0547138 L14.5312673,16.6172073 L19.2187729,16.6172073 L19.2187729,12.60939 C19.2187729,7.9687595 22.0781513,5.43750648 26.2265938,5.43750648 C28.1953461,5.43750648 29.9062857,5.57813165 30.3984737,5.64844423 L30.3984737,10.5000125 L27.5390953,10.52345 C25.2656551,10.52345 24.8437796,11.5781388 24.8437796,13.1484532 L24.8437796,16.6172073 L30.2109735,16.6172073 L29.5078477,22.0547138 L24.8437796,22.0547138 L24.8437796,36.0000429 L29.2500349,36.0000429 C32.9766018,36.0000429 36.0000429,32.9766018 36.0000429,29.2500349 L36.0000429,6.75000805 C36.0000429,3.0234411 32.9766018,0 29.2500349,0 Z" id=""></path>
            </g>
        </g>
    </g>
</svg>