<?xml version="1.0" encoding="UTF-8"?>
<svg width="183px" height="55px" viewBox="0 0 183 55" version="1.1" xmlns="http://www.w3.org/2000/svg" xmlns:xlink="http://www.w3.org/1999/xlink">
    <!-- Generator: Sketch 42 (36781) - http://www.bohemiancoding.com/sketch -->
    <title>googlePlayButton</title>
    <desc>Created with Sketch.</desc>
    <defs></defs>
    <g id="Page-1" stroke="none" stroke-width="1" fill="none" fill-rule="evenodd">
        <g id="Desktop-HD" transform="translate(-453.000000, -646.000000)">
            <g id="googlePlay" transform="translate(453.000000, 646.000000)">
                <g id="googlePlayButton" transform="translate(0.823344, 0.000000)">
                    <rect fill="#A49EAC" x="-5.68434189e-14" y="0" width="182.176656" height="55" rx="6.01503759"></rect>
                    <g id="google-play" transform="translate(54.789972, 23.833333)" fill="#FFFFFF">
                        <path d="M91.0431263,18.5625 L93.5990785,18.5625 L93.5990785,1.373625 L91.0431263,1.373625 L91.0431263,18.5625 Z M114.064503,7.56525 L111.133239,15.01775 L111.045575,15.01775 L108.006102,7.56525 L105.251536,7.56525 L109.811431,17.980875 L107.213017,23.775125 L109.878549,23.775125 L116.905363,7.56525 L114.064503,7.56525 Z M99.568446,16.61 C98.7315291,16.61 97.563133,16.190625 97.563133,15.14975 C97.563133,13.82425 99.0178067,13.3155 100.273867,13.3155 C101.397061,13.3155 101.925784,13.558875 102.60792,13.89025 C102.410676,15.4825 101.043666,16.61 99.568446,16.61 L99.568446,16.61 Z M99.8766395,7.189875 C98.0261083,7.189875 96.109829,8.008 95.3167441,9.821625 L97.585049,10.77175 C98.0699402,9.821625 98.9739748,9.510875 99.9204715,9.510875 C101.24228,9.510875 102.586004,10.307 102.60792,11.72325 L102.60792,11.89925 C102.144944,11.633875 101.154616,11.2365 99.9423875,11.2365 C97.497385,11.2365 95.0085506,12.585375 95.0085506,15.10575 C95.0085506,17.406125 97.0124938,18.888375 99.2602524,18.888375 C100.977918,18.888375 101.925784,18.11425 102.520256,17.20675 L102.60792,17.20675 L102.60792,18.533625 L105.076208,18.533625 L105.076208,11.94325 C105.076208,8.892125 102.806533,7.189875 99.8766395,7.189875 L99.8766395,7.189875 Z M84.0806907,9.658 L80.4467458,9.658 L80.4467458,3.766125 L84.0806907,3.766125 C85.991491,3.766125 87.0777021,5.35425 87.0777021,6.711375 C87.0777021,8.04375 85.991491,9.658 84.0806907,9.658 L84.0806907,9.658 Z M84.0149427,1.373625 L77.8907936,1.373625 L77.8907936,18.5625 L80.4467458,18.5625 L80.4467458,12.0505 L84.0149427,12.0505 C86.8475843,12.0505 89.6322846,9.99075 89.6322846,6.711375 C89.6322846,3.432 86.8475843,1.373625 84.0149427,1.373625 L84.0149427,1.373625 Z M50.6190852,16.61275 C48.8534783,16.61275 47.3755188,15.129125 47.3755188,13.091375 C47.3755188,11.031625 48.8534783,9.524625 50.6190852,9.524625 C52.362776,9.524625 53.7311556,11.031625 53.7311556,13.091375 C53.7311556,15.129125 52.362776,16.61275 50.6190852,16.61275 L50.6190852,16.61275 Z M53.5544579,8.52775 L53.4654242,8.52775 C52.8914993,7.841625 51.7888511,7.2215 50.3985555,7.2215 C47.4850988,7.2215 44.8154574,9.79 44.8154574,13.091375 C44.8154574,16.369375 47.4850988,18.91725 50.3985555,18.91725 C51.7888511,18.91725 52.8914993,18.297125 53.4654242,17.587625 L53.5544579,17.587625 L53.5544579,18.4305 C53.5544579,20.667625 52.362776,21.863875 50.4423875,21.863875 C48.8753943,21.863875 47.9042421,20.733625 47.5083845,19.78075 L45.2784327,20.711625 C45.9181056,22.262625 47.6179645,24.167 50.4423875,24.167 C53.4435082,24.167 55.9816537,22.394625 55.9816537,18.07575 L55.9816537,7.574875 L53.5544579,7.574875 L53.5544579,8.52775 Z M57.7472605,18.5625 L60.3073219,18.5625 L60.3073219,1.37225 L57.7472605,1.37225 L57.7472605,18.5625 Z M64.0809812,12.892 C64.0138635,10.632875 65.8233023,9.480625 67.1259339,9.480625 C68.1409181,9.480625 69.0011207,9.989375 69.2887681,10.720875 L64.0809812,12.892 Z M72.0241574,10.94225 C71.5392661,9.636 70.0599369,7.2215 67.0369002,7.2215 C64.0357795,7.2215 61.5428358,9.590625 61.5428358,13.069375 C61.5428358,16.347375 64.0138635,18.91725 67.3245476,18.91725 C69.9941889,18.91725 71.5392661,17.27825 72.1789391,16.325375 L70.1928026,14.99575 C69.5312137,15.970625 68.6258094,16.61275 67.3245476,16.61275 C66.021916,16.61275 65.0945957,16.014625 64.5001245,14.84175 L72.2898888,11.606375 L72.0241574,10.94225 Z M9.96355637,9.015875 L9.96355637,11.496375 L15.8781338,11.496375 C15.7014362,12.892 15.2370912,13.910875 14.5316703,14.619 C13.670098,15.483875 12.3250042,16.43675 9.96355637,16.43675 C6.32276274,16.43675 3.47642371,13.490125 3.47642371,9.835375 C3.47642371,6.17925 6.32276274,3.234 9.96355637,3.234 C11.9277769,3.234 13.3619044,4.0095 14.4207206,5.006375 L16.1644114,3.256 C14.6864519,1.838375 12.7222314,0.752125 9.96355637,0.752125 C4.97629919,0.752125 0.783496596,4.829 0.783496596,9.835375 C0.783496596,14.84175 4.97629919,18.91725 9.96355637,18.91725 C12.6551137,18.91725 14.6864519,18.030375 16.2753611,16.369375 C17.9081023,14.730375 18.4149095,12.42725 18.4149095,10.5655 C18.4149095,9.989375 18.3710775,9.458625 18.2834136,9.015875 L9.96355637,9.015875 Z M25.1390088,16.61275 C23.373402,16.61275 21.8502407,15.151125 21.8502407,13.069375 C21.8502407,10.96425 23.373402,9.524625 25.1390088,9.524625 C26.9046156,9.524625 28.4264071,10.96425 28.4264071,13.069375 C28.4264071,15.151125 26.9046156,16.61275 25.1390088,16.61275 L25.1390088,16.61275 Z M25.1390088,7.2215 C21.9173585,7.2215 19.2901793,9.68 19.2901793,13.069375 C19.2901793,16.43675 21.9173585,18.91725 25.1390088,18.91725 C28.3606591,18.91725 30.9864685,16.43675 30.9864685,13.069375 C30.9864685,9.68 28.3606591,7.2215 25.1390088,7.2215 L25.1390088,7.2215 Z M37.895484,16.61275 C36.1298771,16.61275 34.6080857,15.151125 34.6080857,13.069375 C34.6080857,10.96425 36.1298771,9.524625 37.895484,9.524625 C39.6610908,9.524625 41.1828823,10.96425 41.1828823,13.069375 C41.1828823,15.151125 39.6610908,16.61275 37.895484,16.61275 L37.895484,16.61275 Z M37.895484,7.2215 C34.6738336,7.2215 32.0480242,9.68 32.0480242,13.069375 C32.0480242,16.43675 34.6738336,18.91725 37.895484,18.91725 C41.1171343,18.91725 43.7429437,16.43675 43.7429437,13.069375 C43.7429437,9.68 41.1171343,7.2215 37.895484,7.2215 L37.895484,7.2215 Z" id="Shape"></path>
                    </g>
                    <path d="M62.6020226,17.0653997 C62.6841131,17.0653997 62.7554011,17.0978461 62.8158888,17.1627397 L63.4186027,17.8181623 C63.0383942,18.2767441 62.5717817,18.6304092 62.0187512,18.8791681 C61.4657206,19.1279271 60.8046862,19.2523048 60.0356281,19.2523048 C59.3529811,19.2523048 58.7362316,19.1344164 58.1853614,18.8986361 C57.6344911,18.6628559 57.1646382,18.3340663 56.7757886,17.9122576 C56.386939,17.4904489 56.0877454,16.9875307 55.8781986,16.4034878 C55.6686519,15.819445 55.5638801,15.1770075 55.5638801,14.4761561 C55.5638801,13.7753047 55.6751326,13.1317857 55.897641,12.5455797 C56.1201494,11.9593738 56.4333847,11.455374 56.8373562,11.0335653 C57.2413277,10.6117566 57.7252222,10.2840486 58.2890541,10.0504314 C58.852886,9.81681428 59.4739559,9.70000747 60.1522824,9.70000747 C60.8262884,9.70000747 61.4214354,9.80924347 61.9377412,10.0277188 C62.4540471,10.246194 62.9022975,10.5371295 63.282506,10.900534 L62.7834849,11.6078712 C62.7489205,11.6554599 62.7078758,11.6965586 62.6603498,11.7311685 C62.6128237,11.7657785 62.5480164,11.7830832 62.465926,11.7830832 C62.3795149,11.7830832 62.2812239,11.743066 62.1710498,11.6630305 C62.0608758,11.582995 61.92046,11.4943084 61.7497982,11.3969679 C61.5791364,11.2996274 61.3652724,11.2109408 61.1081996,11.1309053 C60.8511268,11.0508698 60.5303307,11.0108526 60.1458016,11.0108526 C59.7007849,11.0108526 59.2924989,11.0887238 58.9209315,11.2444686 C58.5493641,11.4002133 58.2296482,11.6273377 57.961774,11.9258485 C57.6938998,12.2243593 57.4854364,12.5877582 57.3363773,13.0160563 C57.1873183,13.4443544 57.1127899,13.9310495 57.1127899,14.4761561 C57.1127899,15.025589 57.1905587,15.5155287 57.3460985,15.9459899 C57.5016384,16.3764511 57.7155024,16.7398501 57.9876972,17.0361977 C58.2598919,17.3325454 58.5796079,17.5585882 58.9468547,17.714333 C59.3141015,17.8700777 59.709426,17.9479489 60.13284,17.9479489 C60.3920731,17.9479489 60.6242992,17.9338889 60.8295254,17.9057683 C61.0347516,17.8776477 61.2237729,17.8322228 61.3965949,17.7694923 C61.569417,17.7067618 61.7325153,17.627809 61.8858949,17.5326317 C62.0392744,17.4374543 62.1915716,17.3206475 62.3427909,17.1822077 C62.4292019,17.1043353 62.5156116,17.0653997 62.6020226,17.0653997 Z M73.5027185,14.4761561 C73.5027185,15.168355 73.3903859,15.8064663 73.1657172,16.3905092 C72.9410485,16.974552 72.6245729,17.4774702 72.2162808,17.899279 C71.8079888,18.3210877 71.3176136,18.6509588 70.7451406,18.8889021 C70.1726675,19.1268455 69.5364759,19.2458154 68.8365467,19.2458154 C68.1409379,19.2458154 67.5069066,19.1268455 66.9344336,18.8889021 C66.3619606,18.6509588 65.8705052,18.3210877 65.4600529,17.899279 C65.0496005,17.4774702 64.7320448,16.974552 64.5073761,16.3905092 C64.2827075,15.8064663 64.1703748,15.168355 64.1703748,14.4761561 C64.1703748,13.7839572 64.2827075,13.1458459 64.5073761,12.5618031 C64.7320448,11.9777602 65.0496005,11.4737604 65.4600529,11.0497886 C65.8705052,10.6258168 66.3619606,10.2948641 66.9344336,10.0569208 C67.5069066,9.81897737 68.1409379,9.70000747 68.8365467,9.70000747 C69.5364759,9.70000747 70.1726675,9.81897737 70.7451406,10.0569208 C71.3176136,10.2948641 71.8079888,10.6258168 72.2162808,11.0497886 C72.6245729,11.4737604 72.9410485,11.9777602 73.1657172,12.5618031 C73.3903859,13.1458459 73.5027185,13.7839572 73.5027185,14.4761561 Z M71.9538087,14.4761561 C71.9538087,13.939702 71.8814405,13.4573331 71.7367021,13.029035 C71.5919636,12.6007369 71.3845803,12.2373379 71.1145458,11.9388271 C70.8445114,11.6403164 70.5172346,11.4110289 70.1327055,11.2509579 C69.7481765,11.0908869 69.3161278,11.0108526 68.8365467,11.0108526 C68.3612861,11.0108526 67.9313977,11.0908869 67.5468686,11.2509579 C67.1623396,11.4110289 66.8339826,11.6403164 66.5617879,11.9388271 C66.2895932,12.2373379 66.0800496,12.6007369 65.9331509,13.029035 C65.7862521,13.4573331 65.7128039,13.939702 65.7128039,14.4761561 C65.7128039,15.0169365 65.7862521,15.5014685 65.9331509,15.9297666 C66.0800496,16.3580647 66.2895932,16.7203821 66.5617879,17.0167298 C66.8339826,17.3130774 67.1623396,17.5402018 67.5468686,17.6981097 C67.9313977,17.8560175 68.3612861,17.9349703 68.8365467,17.9349703 C69.3161278,17.9349703 69.7481765,17.8560175 70.1327055,17.6981097 C70.5172346,17.5402018 70.8445114,17.3130774 71.1145458,17.0167298 C71.3845803,16.7203821 71.5919636,16.3580647 71.7367021,15.9297666 C71.8814405,15.5014685 71.9538087,15.0169365 71.9538087,14.4761561 Z M85.0903785,9.80383679 L85.0903785,19.1484754 L83.7553349,19.1484754 L83.7553349,12.7435044 C83.7553349,12.6396745 83.7585753,12.5261123 83.7650561,12.4028144 C83.771537,12.2795165 83.7812581,12.1551389 83.7942197,12.0296778 L80.793612,17.578057 C80.6769571,17.8073479 80.4976569,17.9219916 80.2557061,17.9219916 L80.0418399,17.9219916 C79.7955684,17.9219916 79.6162683,17.8073479 79.5039339,17.578057 L76.4579607,12.0166991 C76.4709223,12.1421602 76.4806434,12.2676194 76.4871242,12.3930804 C76.4936051,12.5185415 76.4968454,12.6353483 76.4968454,12.7435044 L76.4968454,19.1484754 L75.1618018,19.1484754 L75.1618018,9.80383679 L76.2959408,9.80383679 C76.4298779,9.80383679 76.5335696,9.81573378 76.6070189,9.83952812 C76.6804683,9.86332245 76.7474358,9.93578594 76.8079235,10.0569208 L79.8020505,15.488492 C79.8668587,15.613953 79.9284257,15.7426568 79.9867531,15.8746072 C80.0450805,16.0065577 80.0980065,16.1417507 80.1455326,16.2801905 C80.1973792,16.1417507 80.2524654,16.0043946 80.3107928,15.8681179 C80.3691203,15.7318413 80.4306872,15.6009744 80.4954955,15.4755133 L83.4442568,10.0569208 C83.5047445,9.93578594 83.5717121,9.86332245 83.6451614,9.83952812 C83.7186108,9.81573378 83.8223025,9.80383679 83.9562396,9.80383679 L85.0903785,9.80383679 Z M88.8297968,19.1484754 L87.3068102,19.1484754 L87.3068102,9.80383679 L88.8297968,9.80383679 L88.8297968,19.1484754 Z M98.7713351,9.80383679 L98.7713351,19.1484754 L98.0001206,19.1484754 C97.8834657,19.1484754 97.7840946,19.1279261 97.7020041,19.0868268 C97.6199136,19.0457275 97.5421449,18.9775902 97.4686955,18.8824128 L92.3423873,12.2892511 C92.3553489,12.4147122 92.36507,12.5390898 92.3715508,12.6623877 C92.3780317,12.7856856 92.381272,12.8992478 92.381272,13.0030777 L92.381272,19.1484754 L91.0462284,19.1484754 L91.0462284,9.80383679 L91.8368853,9.80383679 C91.9016936,9.80383679 91.9567798,9.80708142 92.0021456,9.81357079 C92.0475114,9.82006015 92.0896361,9.83195714 92.1285211,9.84926211 C92.167406,9.86656709 92.2041302,9.89252416 92.2386946,9.9271341 C92.273259,9.96174405 92.3099831,10.0050058 92.3488681,10.0569208 L97.4816571,16.6565718 C97.4686954,16.5224583 97.4589743,16.3905098 97.4524935,16.2607225 C97.4460127,16.1309352 97.4427723,16.0098022 97.4427723,15.8973199 L97.4427723,9.80383679 L98.7713351,9.80383679 Z M108.635104,14.5475388 L108.635104,18.2464582 C107.706185,18.9170259 106.626064,19.2523048 105.394707,19.2523048 C104.63861,19.2523048 103.954893,19.1344164 103.343535,18.8986361 C102.732177,18.6628559 102.210479,18.3340663 101.778424,17.9122576 C101.346369,17.4904489 101.013691,16.9875307 100.780381,16.4034878 C100.547072,15.819445 100.430418,15.1770075 100.430418,14.4761561 C100.430418,13.7709785 100.542751,13.1252964 100.76742,12.5390904 C100.992088,11.9528844 101.313965,11.4488847 101.733058,11.0270759 C102.152152,10.6052672 102.657648,10.2786408 103.249564,10.0471868 C103.841479,9.81573274 104.506834,9.70000747 105.245649,9.70000747 C105.621536,9.70000747 105.970416,9.72920917 106.292297,9.78761346 C106.614178,9.84601774 106.913372,9.92713358 107.189887,10.0309634 C107.466402,10.1347933 107.721311,10.2602524 107.954621,10.4073447 C108.18793,10.554437 108.401794,10.7188317 108.596219,10.900534 L108.162006,11.5948925 C108.092877,11.7030486 108.004307,11.7701044 107.896293,11.7960618 C107.78828,11.8220193 107.671626,11.7960622 107.54633,11.7181898 C107.421035,11.6446437 107.28818,11.5667725 107.147762,11.4845739 C107.007344,11.4023753 106.846406,11.3255856 106.664942,11.2542026 C106.483479,11.1828196 106.273936,11.1244162 106.036305,11.0789906 C105.798675,11.0335651 105.517844,11.0108526 105.193802,11.0108526 C104.701259,11.0108526 104.257329,11.0919685 103.861999,11.2542026 C103.466669,11.4164367 103.128591,11.6478872 102.847755,11.9485611 C102.566919,12.2492351 102.350895,12.6137156 102.199675,13.0420137 C102.048456,13.4703117 101.972847,13.9483544 101.972847,14.4761561 C101.972847,15.0342415 102.052776,15.5328335 102.212637,15.9719472 C102.372497,16.4110609 102.599323,16.7831123 102.89312,17.0881124 C103.186918,17.3931126 103.542278,17.6256446 103.959211,17.7857156 C104.376144,17.9457866 104.841676,18.0258209 105.355822,18.0258209 C105.740351,18.0258209 106.08275,17.9847222 106.383028,17.9025236 C106.683306,17.820325 106.978179,17.7056813 107.267656,17.558589 L107.267656,15.7026399 L105.965017,15.7026399 C105.865644,15.7026399 105.787875,15.6756013 105.731708,15.6215233 C105.675541,15.5674452 105.647458,15.4971448 105.647458,15.41062 L105.647458,14.5475388 L108.635104,14.5475388 Z M118.537757,11.4002126 C118.490231,11.4780849 118.440546,11.5354068 118.388699,11.5721799 C118.336853,11.6089529 118.272045,11.6273392 118.194275,11.6273392 C118.112185,11.6273392 118.020375,11.5927298 117.918842,11.5235099 C117.817309,11.45429 117.692015,11.3775003 117.542956,11.2931386 C117.393897,11.2087768 117.217837,11.1309056 117.014771,11.0595226 C116.811705,10.9881396 116.569758,10.9524486 116.288922,10.9524486 C116.029689,10.9524486 115.801783,10.984895 115.605198,11.0497886 C115.408613,11.1146823 115.243354,11.205532 115.109417,11.3223406 C114.97548,11.4391491 114.875029,11.5765053 114.80806,11.7344132 C114.741092,11.8923211 114.707608,12.0642866 114.707608,12.2503151 C114.707608,12.4882585 114.770255,12.6861811 114.895551,12.844089 C115.020847,13.0019969 115.186106,13.13719 115.391332,13.2496723 C115.596558,13.3621546 115.830944,13.4605752 116.094498,13.5449369 C116.358052,13.6292987 116.627002,13.7190669 116.901357,13.8142442 C117.175712,13.9094216 117.444662,14.017576 117.708216,14.1387108 C117.971769,14.2598456 118.206156,14.413425 118.411382,14.5994534 C118.616608,14.7854819 118.781867,15.0126063 118.907163,15.2808333 C119.032459,15.5490604 119.095106,15.8756869 119.095106,16.2607225 C119.095106,16.6760419 119.023818,17.0653979 118.88124,17.4288024 C118.738661,17.7922068 118.532358,18.1090994 118.262324,18.3794896 C117.992289,18.6498798 117.659612,18.862944 117.264281,19.0186888 C116.868951,19.1744336 116.41854,19.2523048 115.913036,19.2523048 C115.614918,19.2523048 115.324365,19.2231031 115.041369,19.1646988 C114.758373,19.1062945 114.488343,19.0240971 114.23127,18.9181041 C113.974197,18.8121112 113.73333,18.6834074 113.508661,18.5319889 C113.283993,18.3805704 113.08309,18.2118494 112.905947,18.0258209 L113.346641,17.2990157 C113.385526,17.2384483 113.435212,17.1908603 113.4957,17.1562504 C113.556187,17.1216405 113.623155,17.1043357 113.696604,17.1043357 C113.795977,17.1043357 113.906149,17.1508422 114.027125,17.2438564 C114.1481,17.3368706 114.293917,17.4385358 114.464578,17.548855 C114.63524,17.6591742 114.841543,17.7608394 115.083494,17.8538536 C115.325445,17.9468679 115.614918,17.9933743 115.951921,17.9933743 C116.500631,17.9933743 116.925118,17.8592627 117.225397,17.5910357 C117.525675,17.3228086 117.675812,16.9529203 117.675812,16.4813598 C117.675812,16.217459 117.613165,16.0022316 117.487869,15.8356713 C117.362573,15.6691109 117.197314,15.5295916 116.992088,15.4171093 C116.786862,15.304627 116.552475,15.2094511 116.288922,15.1315787 C116.025368,15.0537063 115.757498,14.9704274 115.485303,14.8817394 C115.213109,14.7930514 114.945239,14.6892231 114.681685,14.5702514 C114.418131,14.4512797 114.183745,14.2955373 113.978519,14.1030195 C113.773293,13.9105017 113.608034,13.6725619 113.482738,13.3891929 C113.357442,13.105824 113.294795,12.7521589 113.294795,12.3281871 C113.294795,11.9907401 113.360682,11.6641137 113.492459,11.3482979 C113.624236,11.0324821 113.816498,10.7523621 114.06925,10.5079294 C114.322002,10.2634966 114.634157,10.067737 115.005725,9.92064477 C115.377292,9.7735525 115.8007,9.70000747 116.27596,9.70000747 C116.811709,9.70000747 117.303164,9.78436795 117.750341,9.95309143 C118.197518,10.1218149 118.583121,10.3619178 118.907163,10.6734073 L118.537757,11.4002126 Z M129.49678,14.4761561 C129.49678,15.168355 129.384448,15.8064663 129.159779,16.3905092 C128.935111,16.974552 128.618635,17.4774702 128.210343,17.899279 C127.802051,18.3210877 127.311676,18.6509588 126.739203,18.8889021 C126.16673,19.1268455 125.530538,19.2458154 124.830609,19.2458154 C124.135,19.2458154 123.500969,19.1268455 122.928496,18.8889021 C122.356023,18.6509588 121.864567,18.3210877 121.454115,17.899279 C121.043663,17.4774702 120.726107,16.974552 120.501438,16.3905092 C120.276769,15.8064663 120.164437,15.168355 120.164437,14.4761561 C120.164437,13.7839572 120.276769,13.1458459 120.501438,12.5618031 C120.726107,11.9777602 121.043663,11.4737604 121.454115,11.0497886 C121.864567,10.6258168 122.356023,10.2948641 122.928496,10.0569208 C123.500969,9.81897737 124.135,9.70000747 124.830609,9.70000747 C125.530538,9.70000747 126.16673,9.81897737 126.739203,10.0569208 C127.311676,10.2948641 127.802051,10.6258168 128.210343,11.0497886 C128.618635,11.4737604 128.935111,11.9777602 129.159779,12.5618031 C129.384448,13.1458459 129.49678,13.7839572 129.49678,14.4761561 Z M127.947871,14.4761561 C127.947871,13.939702 127.875503,13.4573331 127.730764,13.029035 C127.586026,12.6007369 127.378642,12.2373379 127.108608,11.9388271 C126.838573,11.6403164 126.511297,11.4110289 126.126767,11.2509579 C125.742238,11.0908869 125.31019,11.0108526 124.830609,11.0108526 C124.355348,11.0108526 123.92546,11.0908869 123.540931,11.2509579 C123.156402,11.4110289 122.828045,11.6403164 122.55585,11.9388271 C122.283655,12.2373379 122.074112,12.6007369 121.927213,13.029035 C121.780314,13.4573331 121.706866,13.939702 121.706866,14.4761561 C121.706866,15.0169365 121.780314,15.5014685 121.927213,15.9297666 C122.074112,16.3580647 122.283655,16.7203821 122.55585,17.0167298 C122.828045,17.3130774 123.156402,17.5402018 123.540931,17.6981097 C123.92546,17.8560175 124.355348,17.9349703 124.830609,17.9349703 C125.31019,17.9349703 125.742238,17.8560175 126.126767,17.6981097 C126.511297,17.5402018 126.838573,17.3130774 127.108608,17.0167298 C127.378642,16.7203821 127.586026,16.3580647 127.730764,15.9297666 C127.875503,15.5014685 127.947871,15.0169365 127.947871,14.4761561 Z M139.924378,14.4761561 C139.924378,15.168355 139.812046,15.8064663 139.587377,16.3905092 C139.362708,16.974552 139.046233,17.4774702 138.637941,17.899279 C138.229649,18.3210877 137.739273,18.6509588 137.1668,18.8889021 C136.594327,19.1268455 135.958136,19.2458154 135.258207,19.2458154 C134.562598,19.2458154 133.928566,19.1268455 133.356093,18.8889021 C132.78362,18.6509588 132.292165,18.3210877 131.881713,17.899279 C131.47126,17.4774702 131.153705,16.974552 130.929036,16.3905092 C130.704367,15.8064663 130.592035,15.168355 130.592035,14.4761561 C130.592035,13.7839572 130.704367,13.1458459 130.929036,12.5618031 C131.153705,11.9777602 131.47126,11.4737604 131.881713,11.0497886 C132.292165,10.6258168 132.78362,10.2948641 133.356093,10.0569208 C133.928566,9.81897737 134.562598,9.70000747 135.258207,9.70000747 C135.958136,9.70000747 136.594327,9.81897737 137.1668,10.0569208 C137.739273,10.2948641 138.229649,10.6258168 138.637941,11.0497886 C139.046233,11.4737604 139.362708,11.9777602 139.587377,12.5618031 C139.812046,13.1458459 139.924378,13.7839572 139.924378,14.4761561 Z M138.375469,14.4761561 C138.375469,13.939702 138.3031,13.4573331 138.158362,13.029035 C138.013623,12.6007369 137.80624,12.2373379 137.536206,11.9388271 C137.266171,11.6403164 136.938894,11.4110289 136.554365,11.2509579 C136.169836,11.0908869 135.737788,11.0108526 135.258207,11.0108526 C134.782946,11.0108526 134.353058,11.0908869 133.968528,11.2509579 C133.583999,11.4110289 133.255642,11.6403164 132.983448,11.9388271 C132.711253,12.2373379 132.501709,12.6007369 132.354811,13.029035 C132.207912,13.4573331 132.134464,13.939702 132.134464,14.4761561 C132.134464,15.0169365 132.207912,15.5014685 132.354811,15.9297666 C132.501709,16.3580647 132.711253,16.7203821 132.983448,17.0167298 C133.255642,17.3130774 133.583999,17.5402018 133.968528,17.6981097 C134.353058,17.8560175 134.782946,17.9349703 135.258207,17.9349703 C135.737788,17.9349703 136.169836,17.8560175 136.554365,17.6981097 C136.938894,17.5402018 137.266171,17.3130774 137.536206,17.0167298 C137.80624,16.7203821 138.013623,16.3580647 138.158362,15.9297666 C138.3031,15.5014685 138.375469,15.0169365 138.375469,14.4761561 Z M149.308568,9.80383679 L149.308568,19.1484754 L148.537354,19.1484754 C148.420699,19.1484754 148.321328,19.1279261 148.239237,19.0868268 C148.157147,19.0457275 148.079378,18.9775902 148.005929,18.8824128 L142.879621,12.2892511 C142.892582,12.4147122 142.902303,12.5390898 142.908784,12.6623877 C142.915265,12.7856856 142.918505,12.8992478 142.918505,13.0030777 L142.918505,19.1484754 L141.583462,19.1484754 L141.583462,9.80383679 L142.374119,9.80383679 C142.438927,9.80383679 142.494013,9.80708142 142.539379,9.81357079 C142.584745,9.82006015 142.626869,9.83195714 142.665754,9.84926211 C142.704639,9.86656709 142.741363,9.89252416 142.775928,9.9271341 C142.810492,9.96174405 142.847216,10.0050058 142.886101,10.0569208 L148.01889,16.6565718 C148.005929,16.5224583 147.996208,16.3905098 147.989727,16.2607225 C147.983246,16.1309352 147.980006,16.0098022 147.980006,15.8973199 L147.980006,9.80383679 L149.308568,9.80383679 Z M161.181383,11.0692566 L158.271507,11.0692566 L158.271507,19.1484754 L156.761482,19.1484754 L156.761482,11.0692566 L153.845124,11.0692566 L153.845124,9.80383679 L161.181383,9.80383679 L161.181383,11.0692566 Z M171.246057,14.4761561 C171.246057,15.168355 171.133724,15.8064663 170.909055,16.3905092 C170.684387,16.974552 170.367911,17.4774702 169.959619,17.899279 C169.551327,18.3210877 169.060952,18.6509588 168.488479,18.8889021 C167.916006,19.1268455 167.279814,19.2458154 166.579885,19.2458154 C165.884276,19.2458154 165.250245,19.1268455 164.677772,18.8889021 C164.105299,18.6509588 163.613844,18.3210877 163.203391,17.899279 C162.792939,17.4774702 162.475383,16.974552 162.250714,16.3905092 C162.026046,15.8064663 161.913713,15.168355 161.913713,14.4761561 C161.913713,13.7839572 162.026046,13.1458459 162.250714,12.5618031 C162.475383,11.9777602 162.792939,11.4737604 163.203391,11.0497886 C163.613844,10.6258168 164.105299,10.2948641 164.677772,10.0569208 C165.250245,9.81897737 165.884276,9.70000747 166.579885,9.70000747 C167.279814,9.70000747 167.916006,9.81897737 168.488479,10.0569208 C169.060952,10.2948641 169.551327,10.6258168 169.959619,11.0497886 C170.367911,11.4737604 170.684387,11.9777602 170.909055,12.5618031 C171.133724,13.1458459 171.246057,13.7839572 171.246057,14.4761561 Z M169.697147,14.4761561 C169.697147,13.939702 169.624779,13.4573331 169.48004,13.029035 C169.335302,12.6007369 169.127919,12.2373379 168.857884,11.9388271 C168.58785,11.6403164 168.260573,11.4110289 167.876044,11.2509579 C167.491515,11.0908869 167.059466,11.0108526 166.579885,11.0108526 C166.104624,11.0108526 165.674736,11.0908869 165.290207,11.2509579 C164.905678,11.4110289 164.577321,11.6403164 164.305126,11.9388271 C164.032931,12.2373379 163.823388,12.6007369 163.676489,13.029035 C163.52959,13.4573331 163.456142,13.939702 163.456142,14.4761561 C163.456142,15.0169365 163.52959,15.5014685 163.676489,15.9297666 C163.823388,16.3580647 164.032931,16.7203821 164.305126,17.0167298 C164.577321,17.3130774 164.905678,17.5402018 165.290207,17.6981097 C165.674736,17.8560175 166.104624,17.9349703 166.579885,17.9349703 C167.059466,17.9349703 167.491515,17.8560175 167.876044,17.6981097 C168.260573,17.5402018 168.58785,17.3130774 168.857884,17.0167298 C169.127919,16.7203821 169.335302,16.3580647 169.48004,15.9297666 C169.624779,15.5014685 169.697147,15.0169365 169.697147,14.4761561 Z" id="COMING-SOON-TO" fill="#FFFFFF"></path>
                    <g id="logo" transform="translate(12.327744, 11.458333)" stroke="#FFFFFF">
                        <path d="M0.634193923,0.5471125 C0.235596879,0.9692375 0,1.6264875 0,2.4789875 L0,2.4789875 L0,32.8871125 C0,33.7396125 0.235596879,34.3954875 0.634193923,34.8189875 L0.634193923,34.8189875 L0.734185622,34.9179875 L17.7053794,17.8844875 L17.7053794,17.6837375 L17.7053794,17.4816125 L0.734185622,0.4467375 L0.634193923,0.5471125 Z" id="Fill"></path>
                        <path d="M17.7053794,17.4816125 L17.7053794,17.6837375 L17.7053794,17.8844875 L23.3610742,23.5646125 L23.4912004,23.4917375 L30.1920139,19.6678625 C32.1069235,18.5774875 32.1069235,16.7899875 30.1920139,15.6982375 L30.1920139,15.6982375 L23.4912004,11.8757375 L23.362444,11.8028625 L17.7053794,17.4816125 Z" id="Fill"></path>
                        <path d="M0.634193923,34.8189875 C1.2642786,35.4899875 2.30665781,35.5724875 3.48053296,34.9042375 L23.4912004,23.4917375 L17.7053794,17.6837375 L0.634193923,34.8189875 Z" id="Fill"></path>
                        <path d="M0.634193923,0.5471125 L17.7053794,17.6837375 L23.4912004,11.8743625 L3.48053296,0.4618625 C2.92989374,0.1483625 2.40801926,-0.0001375 1.945044,-0.0001375 L1.945044,-0.0001375 C1.42043002,-0.0001375 0.968412751,0.1909875 0.634193923,0.5471125" id="Fill"></path>
                    </g>
                </g>
            </g>
        </g>
    </g>
</svg>