<?xml version="1.0" encoding="UTF-8"?>
<svg width="36px" height="36px" viewBox="0 0 36 36" version="1.1" xmlns="http://www.w3.org/2000/svg" xmlns:xlink="http://www.w3.org/1999/xlink">
    <!-- Generator: Sketch 42 (36781) - http://www.bohemiancoding.com/sketch -->
    <title>instagramButton</title>
    <desc>Created with Sketch.</desc>
    <defs></defs>
    <g id="Page-1" stroke="none" stroke-width="1" fill="none" fill-rule="evenodd">
        <g id="Desktop-HD" transform="translate(-1059.000000, -864.000000)" fill="#776F83">
            <g id="Group-10" transform="translate(1059.000000, 864.000000)">
                <path d="M24.0014935,18.0014863 C24.0014935,14.6967949 21.3061777,12.0014792 18.0014863,12.0014792 C14.6967949,12.0014792 12.0014792,14.6967949 12.0014792,18.0014863 C12.0014792,21.3061777 14.6967949,24.0014935 18.0014863,24.0014935 C21.3061777,24.0014935 24.0014935,21.3061777 24.0014935,18.0014863 Z M27.2358723,18.0014863 C27.2358723,23.1108674 23.1108674,27.2358723 18.0014863,27.2358723 C12.8921052,27.2358723 8.76710029,23.1108674 8.76710029,18.0014863 C8.76710029,12.8921052 12.8921052,8.76710029 18.0014863,8.76710029 C23.1108674,8.76710029 27.2358723,12.8921052 27.2358723,18.0014863 Z M29.7671253,8.39209985 C29.7671253,9.58741377 28.8061867,10.5483524 27.6108728,10.5483524 C26.4155588,10.5483524 25.4546202,9.58741377 25.4546202,8.39209985 C25.4546202,7.19678592 26.4155588,6.23584728 27.6108728,6.23584728 C28.8061867,6.23584728 29.7671253,7.19678592 29.7671253,8.39209985 Z M18.0014863,3.2358437 C15.3764832,3.2358437 9.75147647,3.02490595 7.38428615,3.96240707 C6.56397267,4.29053246 5.95459694,4.68897043 5.32178369,5.32178369 C4.68897043,5.95459694 4.29053246,6.56397267 3.96240707,7.38428615 C3.02490595,9.75147647 3.2358437,15.3764832 3.2358437,18.0014863 C3.2358437,20.6264894 3.02490595,26.2514961 3.96240707,28.6186865 C4.29053246,29.4389999 4.68897043,30.0483757 5.32178369,30.6811889 C5.95459694,31.3140022 6.56397267,31.7124401 7.38428615,32.0405655 C9.75147647,32.9780667 15.3764832,32.7671289 18.0014863,32.7671289 C20.6264894,32.7671289 26.2514961,32.9780667 28.6186865,32.0405655 C29.4389999,31.7124401 30.0483757,31.3140022 30.6811889,30.6811889 C31.3140022,30.0483757 31.7124401,29.4389999 32.0405655,28.6186865 C32.9780667,26.2514961 32.7671289,20.6264894 32.7671289,18.0014863 C32.7671289,15.3764832 32.9780667,9.75147647 32.0405655,7.38428615 C31.7124401,6.56397267 31.3140022,5.95459694 30.6811889,5.32178369 C30.0483757,4.68897043 29.4389999,4.29053246 28.6186865,3.96240707 C26.2514961,3.02490595 20.6264894,3.2358437 18.0014863,3.2358437 Z M36.0015078,18.0014863 C36.0015078,20.4858643 36.0249453,22.9468047 35.8843201,25.4311827 C35.743695,28.3139986 35.0874442,30.8686891 32.9780667,32.9780667 C30.8686891,35.0874442 28.3139986,35.743695 25.4311827,35.8843201 C22.9468047,36.0249453 20.4858643,36.0015078 18.0014863,36.0015078 C15.5171083,36.0015078 13.0561679,36.0249453 10.5717899,35.8843201 C7.68897401,35.743695 5.13428346,35.0874442 3.02490595,32.9780667 C0.915528435,30.8686891 0.259277653,28.3139986 0.118652485,25.4311827 C-0.0219726824,22.9468047 0.0014648455,20.4858643 0.0014648455,18.0014863 C0.0014648455,15.5171083 -0.0219726824,13.0561679 0.118652485,10.5717899 C0.259277653,7.68897401 0.915528435,5.13428346 3.02490595,3.02490595 C5.13428346,0.915528435 7.68897401,0.259277653 10.5717899,0.118652485 C13.0561679,-0.0219726824 15.5171083,0.0014648455 18.0014863,0.0014648455 C20.4858643,0.0014648455 22.9468047,-0.0219726824 25.4311827,0.118652485 C28.3139986,0.259277653 30.8686891,0.915528435 32.9780667,3.02490595 C35.0874442,5.13428346 35.743695,7.68897401 35.8843201,10.5717899 C36.0249453,13.0561679 36.0015078,15.5171083 36.0015078,18.0014863 Z" id=""></path>
            </g>
        </g>
    </g>
</svg>