<?xml version="1.0" encoding="UTF-8"?>
<svg width="331px" height="37px" viewBox="0 0 331 37" version="1.1" xmlns="http://www.w3.org/2000/svg" xmlns:xlink="http://www.w3.org/1999/xlink">
    <!-- Generator: Sketch 42 (36781) - http://www.bohemiancoding.com/sketch -->
    <title>Group 3</title>
    <desc>Created with Sketch.</desc>
    <defs>
        <linearGradient x1="0%" y1="0%" x2="173.608029%" y2="105.937839%" id="linearGradient-1">
            <stop stop-color="#3023AE" offset="0%"></stop>
            <stop stop-color="#C86DD8" offset="98.1933722%"></stop>
            <stop stop-color="#C96DD8" offset="100%"></stop>
        </linearGradient>
        <linearGradient x1="0%" y1="0%" x2="93.5335064%" y2="98.1933713%" id="linearGradient-2">
            <stop stop-color="#3023AE" offset="0%"></stop>
            <stop stop-color="#C86DD8" offset="98.1933722%"></stop>
            <stop stop-color="#C96DD8" offset="100%"></stop>
        </linearGradient>
    </defs>
    <g id="Page-1" stroke="none" stroke-width="1" fill="none" fill-rule="evenodd">
        <g id="Desktop-HD" transform="translate(-251.000000, -166.000000)">
            <g id="Group-5" transform="translate(250.000000, 166.000000)">
                <g id="Group-3" transform="translate(1.000000, 0.000000)">
                    <path d="M20.2446432,25.5588609 C27.0686887,25.5588609 32.5969736,19.9867471 32.5969736,13.1177219 C32.5969736,6.24869668 27.0686887,0.676582814 20.2446432,0.676582814 C13.4205978,0.676582814 7.89231281,6.24869668 7.89231281,13.1177219 C7.89231281,19.9867471 13.4205978,25.5588609 20.2446432,25.5588609 Z M20.2446432,23.095898 C14.7842354,23.095898 10.3540034,18.6305425 10.3540034,13.1177219 C10.3540034,7.60490121 14.7842354,3.13954578 20.2446432,3.13954578 C25.705051,3.13954578 30.1352831,7.60490121 30.1352831,13.1177219 C30.1352831,18.6305425 25.705051,23.095898 20.2446432,23.095898 Z" id="Oval-4" fill="url(#linearGradient-1)" fill-rule="nonzero"></path>
                    <path d="M12.5831757,36.7685185 C19.4072211,36.7685185 24.9355061,31.1964047 24.9355061,24.3273795 C24.9355061,17.4583543 19.4072211,11.8862404 12.5831757,11.8862404 C5.75913025,11.8862404 0.230845279,17.4583543 0.230845279,24.3273795 C0.230845279,31.1964047 5.75913025,36.7685185 12.5831757,36.7685185 Z M12.5831757,34.3055556 C7.12276786,34.3055556 2.69253584,29.8402001 2.69253584,24.3273795 C2.69253584,18.8145588 7.12276786,14.3492034 12.5831757,14.3492034 C18.0435835,14.3492034 22.4738155,18.8145588 22.4738155,24.3273795 C22.4738155,29.8402001 18.0435835,34.3055556 12.5831757,34.3055556 Z" id="Oval-4-Copy" fill="url(#linearGradient-1)" fill-rule="nonzero"></path>
                    <path d="M27.9061108,36.7685185 C34.7301562,36.7685185 40.2584412,31.1964047 40.2584412,24.3273795 C40.2584412,17.4583543 34.7301562,11.8862404 27.9061108,11.8862404 C21.0820653,11.8862404 15.5537803,17.4583543 15.5537803,24.3273795 C15.5537803,31.1964047 21.0820653,36.7685185 27.9061108,36.7685185 Z M27.9061108,34.3055556 C22.4457029,34.3055556 18.0154709,29.8402001 18.0154709,24.3273795 C18.0154709,18.8145588 22.4457029,14.3492034 27.9061108,14.3492034 C33.3665186,14.3492034 37.7967506,18.8145588 37.7967506,24.3273795 C37.7967506,29.8402001 33.3665186,34.3055556 27.9061108,34.3055556 Z" id="Oval-4-Copy-3" fill="url(#linearGradient-1)" fill-rule="nonzero"></path>
                    <path d="M51.6108406,33.4962963 C51.6108406,34.4251852 52.3641179,35.1851852 53.2429415,35.1851852 L61.7800843,35.1851852 C70.986807,35.1851852 77.3478154,28.7251852 77.3478154,20.4074074 L77.3478154,20.322963 C77.3478154,12.0051852 70.986807,5.62962963 61.7800843,5.62962963 L53.2429415,5.62962963 C52.3641179,5.62962963 51.6108406,6.38962963 51.6108406,7.31851852 L51.6108406,33.4962963 Z M54.916891,32.102963 L54.916891,8.71185185 L61.7800843,8.71185185 C69.1873112,8.71185185 73.9162188,13.862963 73.9162188,20.4074074 L73.9162188,20.4918519 C73.9162188,27.0362963 69.1873112,32.102963 61.7800843,32.102963 L54.916891,32.102963 Z M84.8387397,33.7074074 C84.8387397,34.6362963 85.592017,35.3962963 86.4708406,35.3962963 C87.3915128,35.3962963 88.1447901,34.6362963 88.1447901,33.7074074 L88.1447901,23.7007407 L96.5563868,23.7007407 L104.800588,34.5096296 C105.177227,35.0162963 105.679412,35.3962963 106.348992,35.3962963 C107.185967,35.3962963 108.022941,34.6362963 108.022941,33.7496296 C108.022941,33.2851852 107.813698,32.9051852 107.478908,32.5251852 L100.197227,23.0674074 C104.75874,22.1807407 108.022941,19.3518519 108.022941,14.4962963 L108.022941,14.4118519 C108.022941,12.0896296 107.185967,10.0207407 105.763109,8.58518519 C103.921765,6.72740741 101.034202,5.62962963 97.4352103,5.62962963 L86.4708406,5.62962963 C85.592017,5.62962963 84.8387397,6.38962963 84.8387397,7.31851852 L84.8387397,33.7074074 Z M88.1447901,20.702963 L88.1447901,8.71185185 L97.1841179,8.71185185 C101.913025,8.71185185 104.675042,10.9074074 104.675042,14.5385185 L104.675042,14.622963 C104.675042,18.422963 101.536387,20.702963 97.1422691,20.702963 L88.1447901,20.702963 Z M117.229664,35.1851852 L135.643109,35.1851852 C136.480084,35.1851852 137.149664,34.5096296 137.149664,33.6651852 C137.149664,32.8207407 136.480084,32.1451852 135.643109,32.1451852 L118.903614,32.1451852 L118.903614,21.8007407 L133.550672,21.8007407 C134.387647,21.8007407 135.057227,21.1251852 135.057227,20.2807407 C135.057227,19.4785185 134.387647,18.7607407 133.550672,18.7607407 L118.903614,18.7607407 L118.903614,8.66962963 L135.433866,8.66962963 C136.27084,8.66962963 136.94042,7.99407407 136.94042,7.14962963 C136.94042,6.30518519 136.27084,5.62962963 135.433866,5.62962963 L117.229664,5.62962963 C116.35084,5.62962963 115.597563,6.38962963 115.597563,7.31851852 L115.597563,33.4962963 C115.597563,34.4251852 116.35084,35.1851852 117.229664,35.1851852 Z M142.129664,33.8762963 C142.129664,34.7207407 142.799244,35.3962963 143.636219,35.3962963 C144.389496,35.3962963 144.93353,34.9740741 145.226471,34.2562963 L148.281429,27.3740741 L164.351345,27.3740741 L167.406303,34.1718519 C167.699244,34.8474074 168.243277,35.3962963 169.038403,35.3962963 C169.917227,35.3962963 170.628656,34.6785185 170.628656,33.7918519 C170.628656,33.5385185 170.544958,33.242963 170.419412,32.9474074 L158.53437,6.76962963 C158.157731,5.84074074 157.488151,5.29185185 156.483782,5.29185185 L156.316387,5.29185185 C155.270168,5.29185185 154.642437,5.84074074 154.22395,6.76962963 L142.338908,32.9896296 C142.171513,33.3274074 142.129664,33.622963 142.129664,33.8762963 Z M149.57874,24.3340741 L156.316387,9.21851852 L163.054034,24.3340741 L149.57874,24.3340741 Z M177.45,33.7496296 C177.45,34.6785185 178.161429,35.3962963 179.040252,35.3962963 C179.960924,35.3962963 180.672353,34.6785185 180.672353,33.7496296 L180.672353,11.7096296 L190.004622,25.5585185 C190.381261,26.1074074 190.841597,26.402963 191.427479,26.402963 C192.013361,26.402963 192.431849,26.1074074 192.808487,25.5585185 L202.182605,11.6674074 L202.182605,33.7074074 C202.182605,34.5940741 202.935882,35.3962963 203.856555,35.3962963 C204.735378,35.3962963 205.488655,34.6362963 205.488655,33.7074074 L205.488655,7.14962963 C205.488655,6.26296296 204.735378,5.50296296 203.856555,5.50296296 L203.479916,5.50296296 C202.810336,5.50296296 202.266303,5.84074074 201.931513,6.38962963 L191.469328,22.2651852 L181.007143,6.38962963 C180.672353,5.88296296 180.170168,5.50296296 179.45874,5.50296296 L179.082101,5.50296296 C178.203277,5.50296296 177.45,6.26296296 177.45,7.14962963 L177.45,33.7496296 Z M224.320588,35.6074074 C230.137563,35.6074074 234.322437,32.3140741 234.322437,27.2474074 L234.322437,27.162963 C234.322437,22.6451852 231.309328,20.2385185 224.780924,18.802963 C218.336218,17.4096296 216.829664,15.8474074 216.829664,13.0607407 L216.829664,12.9762963 C216.829664,10.3162963 219.256891,8.20518519 223.065126,8.20518519 C225.785294,8.20518519 228.170672,8.96518519 230.639748,10.7807407 C230.932689,10.9918519 231.22563,11.0762963 231.602269,11.0762963 C232.481092,11.0762963 233.192521,10.3585185 233.192521,9.47185185 C233.192521,8.83851852 232.815882,8.37407407 232.481092,8.12074074 C229.802773,6.17851852 226.998908,5.20740741 223.148823,5.20740741 C217.582941,5.20740741 213.523613,8.62740741 213.523613,13.2718519 L213.523613,13.3562963 C213.523613,18.2118519 216.62042,20.4074074 223.358067,21.8851852 C229.509832,23.1940741 230.974538,24.7562963 230.974538,27.5007407 L230.974538,27.5851852 C230.974538,30.4985185 228.379916,32.6096296 224.446134,32.6096296 C220.721597,32.6096296 217.95958,31.4696296 215.197563,29.1051852 C214.988319,28.8940741 214.611681,28.7251852 214.193193,28.7251852 C213.31437,28.7251852 212.602941,29.442963 212.602941,30.3718519 C212.602941,30.9207407 212.854034,31.3851852 213.230672,31.6385185 C216.494874,34.2562963 220.052017,35.6074074 224.320588,35.6074074 Z M241.562269,33.7496296 C241.562269,34.6362963 242.273697,35.3962963 243.152521,35.3962963 C244.073193,35.3962963 244.784622,34.6362963 244.784622,33.7496296 L244.784622,10.8651852 L262.946975,34.2985185 C263.44916,34.8896296 263.951344,35.3118519 264.662773,35.3118519 L264.830168,35.3118519 C265.708992,35.3118519 266.336723,34.6362963 266.336723,33.7496296 L266.336723,7.06518519 C266.336723,6.17851852 265.625294,5.41851852 264.74647,5.41851852 C263.825798,5.41851852 263.11437,6.17851852 263.11437,7.06518519 L263.11437,29.3585185 L245.328655,6.47407407 C244.868319,5.88296296 244.407983,5.50296296 243.654706,5.50296296 L243.19437,5.50296296 C242.315546,5.50296296 241.562269,6.26296296 241.562269,7.14962963 L241.562269,33.7496296 Z M273.116218,33.8762963 C273.116218,34.7207407 273.785798,35.3962963 274.622773,35.3962963 C275.37605,35.3962963 275.920084,34.9740741 276.213025,34.2562963 L279.267983,27.3740741 L295.337899,27.3740741 L298.392857,34.1718519 C298.685798,34.8474074 299.229832,35.3962963 300.024958,35.3962963 C300.903781,35.3962963 301.61521,34.6785185 301.61521,33.7918519 C301.61521,33.5385185 301.531512,33.242963 301.405966,32.9474074 L289.520924,6.76962963 C289.144286,5.84074074 288.474706,5.29185185 287.470336,5.29185185 L287.302941,5.29185185 C286.256723,5.29185185 285.628991,5.84074074 285.210504,6.76962963 L273.325462,32.9896296 C273.158067,33.3274074 273.116218,33.622963 273.116218,33.8762963 Z M280.565294,24.3340741 L287.302941,9.21851852 L294.040588,24.3340741 L280.565294,24.3340741 Z M308.436554,33.7074074 C308.436554,34.6362963 309.189832,35.3962963 310.068655,35.3962963 C310.989328,35.3962963 311.742605,34.6362963 311.742605,33.7074074 L311.742605,24.7562963 L318.856891,24.7562963 C325.092353,24.7562963 330.365294,21.462963 330.365294,15.0874074 L330.365294,15.002963 C330.365294,9.1762963 326.013025,5.62962963 319.400924,5.62962963 L310.068655,5.62962963 C309.189832,5.62962963 308.436554,6.38962963 308.436554,7.31851852 L308.436554,33.7074074 Z M311.742605,21.7162963 L311.742605,8.71185185 L319.149832,8.71185185 C323.878739,8.71185185 327.017395,10.9074074 327.017395,15.1296296 L327.017395,15.2140741 C327.017395,19.0985185 323.836891,21.7162963 318.982437,21.7162963 L311.742605,21.7162963 Z" id="DREAMSNAP" fill="url(#linearGradient-2)"></path>
                </g>
            </g>
        </g>
    </g>
</svg>