<?xml version="1.0" encoding="UTF-8"?>
<svg width="36px" height="36px" viewBox="0 0 36 36" version="1.1" xmlns="http://www.w3.org/2000/svg" xmlns:xlink="http://www.w3.org/1999/xlink">
    <!-- Generator: Sketch 42 (36781) - http://www.bohemiancoding.com/sketch -->
    <title>twitterButton</title>
    <desc>Created with Sketch.</desc>
    <defs></defs>
    <g id="Page-1" stroke="none" stroke-width="1" fill="none" fill-rule="evenodd">
        <g id="Desktop-HD" transform="translate(-993.000000, -864.000000)" fill="#776F83">
            <g id="Group-9" transform="translate(993.000000, 864.000000)">
                <path d="M30.0000358,11.2968885 C29.1094097,11.6953264 28.1719086,11.9531392 27.1640949,12.0937644 C28.1953461,11.4843887 28.9687845,10.5000125 29.343785,9.35157365 C28.3828463,9.91407432 27.3281576,10.3359498 26.2031562,10.5468876 C25.3125302,9.58594893 24.0234661,9.00001073 22.6172145,9.00001073 C19.8984612,9.00001073 17.6953336,11.2031384 17.6953336,13.9218916 C17.6953336,14.296892 17.7187711,14.69533 17.8125212,15.0468929 C13.7109538,14.8359552 10.078137,12.8906404 7.64063411,9.89063679 C7.21875861,10.6172002 6.9609458,11.4843887 6.9609458,12.3750148 C6.9609458,14.0859543 7.75782175,15.5859561 9.09376084,16.4765821 C8.27344736,16.4531446 7.50000894,16.2187693 6.75000805,15.8672064 L6.75000805,15.9140815 C6.75000805,18.3047093 8.5546977,20.2968992 10.8047004,20.7422122 C10.3828249,20.8593999 10.0546995,20.9297125 9.60938646,20.9297125 C9.30469859,20.9297125 9.00001073,20.8828374 8.69532287,20.8359623 C9.32813612,22.7812772 11.1328258,24.2109664 13.2890783,24.2578414 C11.6015763,25.570343 9.49219882,26.3672189 7.17188355,26.3672189 C6.77344557,26.3672189 6.3750076,26.3437814 6.00000715,26.2969063 C8.17969725,27.6797205 10.7578253,28.500034 13.5468911,28.500034 C22.5937769,28.500034 27.5625329,21.000025 27.5625329,14.4843923 C27.5625329,14.2734545 27.5625329,14.0625168 27.5390953,13.851579 C28.500034,13.1718907 29.343785,12.3047022 30.0000358,11.2968885 Z M36.0000429,6.75000805 L36.0000429,29.2500349 C36.0000429,32.9766018 32.9766018,36.0000429 29.2500349,36.0000429 L6.75000805,36.0000429 C3.0234411,36.0000429 0,32.9766018 0,29.2500349 L0,6.75000805 C0,3.0234411 3.0234411,0 6.75000805,0 L29.2500349,0 C32.9766018,0 36.0000429,3.0234411 36.0000429,6.75000805 Z" id="ï‚"></path>
            </g>
        </g>
    </g>
</svg>